<svg xmlns="http://www.w3.org/2000/svg" width="256" height="256" viewBox="0 0 100 100"><rect width="100" height="100" rx="20" fill="#d77a23"></rect><path d="M46.52 33.02L46.52 33.02Q46.52 33.75 45.78 35.46Q45.04 37.17 43.50 39.98Q41.96 42.80 39.55 46.82Q37.14 50.84 33.72 56.13L33.72 56.13L33.72 70.27Q33.18 70.40 32.08 70.60Q30.97 70.80 29.77 70.80L29.77 70.80Q27.22 70.80 26.21 69.87Q25.21 68.93 25.21 66.78L25.21 66.78L25.21 56.20Q23.40 53.58 21.39 50.44Q19.38 47.29 17.44 44.07Q15.49 40.85 13.82 37.74Q12.14 34.62 11.01 32.08L11.01 32.08Q11.54 31.07 12.68 30.24Q13.82 29.40 15.56 29.40L15.56 29.40Q17.50 29.40 18.68 30.27Q19.85 31.14 20.99 33.28L20.99 33.28Q21.52 34.22 22.70 36.40Q23.87 38.58 25.18 40.99Q26.48 43.40 27.66 45.54Q28.83 47.69 29.30 48.49L29.30 48.49L29.63 48.49Q30.90 46.01 32.04 43.77Q33.18 41.52 34.25 39.35Q35.33 37.17 36.37 34.93Q37.40 32.68 38.54 30.27L38.54 30.27Q39.35 29.80 40.39 29.60Q41.42 29.40 42.36 29.40L42.36 29.40Q44.17 29.40 45.34 30.34Q46.52 31.27 46.52 33.02ZM80.08 49.83L80.08 49.83Q80.08 46.21 79.08 43.57Q78.07 40.92 76.30 39.21Q74.52 37.50 72.08 36.67Q69.63 35.83 66.75 35.83L66.75 35.83Q65.21 35.83 63.97 35.93Q62.73 36.03 61.59 36.16L61.59 36.16L61.59 63.70Q62.73 63.97 64.17 64.07Q65.61 64.17 67.02 64.17L67.02 64.17Q73.25 64.17 76.67 60.55Q80.08 56.93 80.08 49.83ZM88.99 49.77L88.99 49.77Q88.99 55.19 87.42 59.25Q85.84 63.30 82.96 65.95Q80.08 68.59 76.03 69.93Q71.98 71.27 67.02 71.27L67.02 71.27Q65.88 71.27 64.54 71.24Q63.20 71.21 61.76 71.04Q60.32 70.87 58.88 70.60Q57.44 70.33 56.16 69.87L56.16 69.87Q52.95 68.66 52.95 65.85L52.95 65.85L52.95 33.02Q52.95 31.81 53.62 31.14Q54.29 30.47 55.49 30.07L55.49 30.07Q57.97 29.20 60.89 28.96Q63.80 28.73 66.41 28.73L66.41 28.73Q71.44 28.73 75.63 30.03Q79.81 31.34 82.76 33.95Q85.71 36.57 87.35 40.52Q88.99 44.47 88.99 49.77Z" fill="#f8f5f5"></path></svg>